<?xml version="1.0" encoding="UTF-8"?>
<svg width="60" height="25" viewBox="0 0 60 25" xmlns="http://www.w3.org/2000/svg">
  <!-- 平台主体 -->
  <path d="M5,10 H55 Q60,10 60,15 V20 Q60,25 55,25 H5 Q0,25 0,20 V15 Q0,10 5,10 Z" fill="#CCFFCC"/>
  
  <!-- 平台高光 -->
  <path d="M5,10 H55 Q60,10 60,13 V13 Q58,15 5,15 Q0,15 0,13 V13 Q0,10 5,10 Z" fill="rgba(255,255,255,0.4)"/>
  
  <!-- 弹簧底座 -->
  <rect x="23" y="6" width="14" height="4" fill="#FF5252"/>
  
  <!-- 弹簧锯齿部分 -->
  <path d="M23,6 
           L27,2 L33,6 L37,2 
           L37,2 L33,-2 L27,2 L23,-2
           L23,-2 L27,-6 L33,-2 L37,-6
           L37,-6 L33,-10 L27,-6 L23,-10
           L23,-10 L23,-10 L37,-10 L37,-10" fill="#FF5252"/>
  
  <!-- 弹簧顶部 -->
  <rect x="21" y="-14" width="18" height="4" fill="#FF5252"/>
</svg> 