<?xml version="1.0" encoding="UTF-8"?>
<svg width="40" height="60" viewBox="0 0 40 60" fill="none" xmlns="http://www.w3.org/2000/svg">
  <!-- Balloon -->
  <ellipse cx="20" cy="10" rx="14" ry="16" fill="#FFA07A"/>
  <path d="M18 24C18 24 19 27 20 27C21 27 22 24 22 24" stroke="#A0522D" stroke-width="1.5" stroke-linecap="round"/>
  
  <!-- Balloon strings to character hands -->
  <path d="M20 27C20 27 18 30 15 33" stroke="#A0522D" stroke-width="1.5" stroke-linecap="round"/>
  <path d="M20 27C20 27 22 30 25 33" stroke="#A0522D" stroke-width="1.5" stroke-linecap="round"/>
  
  <!-- Balloon highlights -->
  <ellipse cx="16" cy="8" rx="3" ry="4" fill="#FFB6C1" fill-opacity="0.6"/>
  
  <!-- Character body -->
  <rect x="15" y="35" width="10" height="15" rx="5" fill="#FF6B6B"/>
  
  <!-- Eyes -->
  <circle cx="17" cy="40" r="1.5" fill="#FFFFFF"/>
  <circle cx="23" cy="40" r="1.5" fill="#FFFFFF"/>
  
  <!-- Pupils -->
  <circle cx="17" cy="40" r="0.7" fill="#343a40"/>
  <circle cx="23" cy="40" r="0.7" fill="#343a40"/>
  
  <!-- Mouth -->
  <path d="M18 44C18 44 20 45 22 44" stroke="#343a40" stroke-width="0.7" stroke-linecap="round"/>
  
  <!-- Arms -->
  <line x1="15" y1="39" x2="10" y2="35" stroke="#FF6B6B" stroke-width="2" stroke-linecap="round"/>
  <line x1="25" y1="39" x2="30" y2="35" stroke="#FF6B6B" stroke-width="2" stroke-linecap="round"/>
  
  <!-- Legs -->
  <line x1="17" y1="50" x2="15" y2="57" stroke="#FF6B6B" stroke-width="2" stroke-linecap="round"/>
  <line x1="23" y1="50" x2="25" y2="57" stroke="#FF6B6B" stroke-width="2" stroke-linecap="round"/>
  
  <!-- Feet -->
  <ellipse cx="14" cy="58" rx="2" ry="1" fill="#FF6B6B"/>
  <ellipse cx="26" cy="58" rx="2" ry="1" fill="#FF6B6B"/>
</svg> 